<svg xmlns="http://www.w3.org/2000/svg" height="2048" preserveAspectRatio="none" style="display: block;" version="1.1" viewBox="0 0 2048 2048" width="2048">
<defs>
	<linearGradient gradientUnits="userSpaceOnUse" id="Gradient1" x1="960.228" x2="1134.37" y1="676.756" y2="1084.36">
		<stop class="stop0" offset="0" stop-color="rgb(52,160,253)" stop-opacity="1"></stop>
		<stop class="stop1" offset="1" stop-color="rgb(147,184,252)" stop-opacity="1"></stop>
	</linearGradient>
</defs>

<path d="M 452.707 1756.13 C 448.01 1754.44 436.745 1748.15 432.386 1745.59 C 342.466 1692.84 285.344 1612.04 259.091 1511.77 C 242.119 1446.94 242.843 1400.4 242.839 1335.14 L 242.785 1229.48 L 242.859 936.745 L 242.83 743.989 C 242.815 693.926 241.882 649.615 247.183 600.141 C 265.114 432.808 369.566 300.757 535.126 259.531 C 600.372 243.284 648.277 242.998 714.992 242.978 L 817.484 242.97 L 1085.82 242.978 L 1295.76 242.982 C 1348.25 242.99 1395.42 241.789 1447.38 247.45 C 1613.68 265.571 1746.13 368.381 1788.86 533.13 C 1807.25 604.058 1806.2 654.315 1806.34 726.881 L 1806.25 854.074 L 1806.38 1121.13 L 1806.25 1304 C 1806.3 1348.57 1807.83 1396.54 1802.62 1440.45 C 1796.4 1493 1779.61 1558.5 1752.45 1604.63 C 1691.51 1726.77 1549.85 1796.3 1417.74 1801.84 C 1366.26 1804 1314.41 1803.19 1262.87 1803.16 L 993.491 1803.21 L 760.55 1803.13 C 733.053 1803.13 705.918 1802.86 677.868 1803.17 C 602.065 1804 524.867 1791.56 456.182 1758.29 C 454.859 1757.65 453.868 1756.99 452.707 1756.13 z" fill="rgb(79,140,255)" transform="translate(0,0)"></path>
<path d="M 786.042 511.405 C 801.824 509.606 846.551 510.736 864.189 510.689 L 1037.38 510.744 L 1193.38 510.863 C 1247.96 510.984 1294.53 504.911 1340.6 541.428 C 1370.75 565.377 1389.93 600.497 1393.8 638.807 C 1395.88 657.604 1395.03 684.871 1395 704.406 L 1394.95 807.799 L 1394.74 918.717 C 1394.7 941.19 1396 969.954 1392.34 991.446 C 1388.52 1015.05 1378.72 1037.28 1363.87 1056.01 C 1337.98 1088.19 1304.11 1105.15 1263.47 1109.64 C 1249.27 1112.23 1212.1 1110.17 1196.45 1110.12 L 1068.96 1110.28 L 872.894 1110.08 C 848.869 1110.06 796.23 1111.77 775.571 1108.67 C 750.766 1104.83 727.396 1094.57 707.782 1078.91 C 652.188 1034.56 654.989 981.097 655.006 917.474 L 655.025 807.399 L 655.001 701.064 C 654.988 679.449 653.906 648.324 657.524 628.022 C 661.652 603.871 671.982 581.205 687.501 562.244 C 712.582 531.462 746.906 515.214 786.042 511.405 z" fill="rgb(251,252,254)" transform="translate(0,0)"></path>
<path d="M 733.199 745.359 C 732.656 737.024 733.049 723.699 733.038 715.055 L 733.038 657.455 C 733.151 639.028 735.957 621.497 749.915 608.062 C 771.193 587.581 799.65 590.922 827.01 590.892 L 895.228 590.879 C 966.081 590.885 1041.32 589.571 1111.84 591.113 C 1144.35 590.425 1177.76 591.072 1210.39 590.894 C 1222.44 590.829 1257.27 590.231 1267.99 592.266 C 1278.91 594.316 1289.03 599.386 1297.21 606.901 C 1311.73 620.334 1315.95 637.233 1315.95 656.267 C 1315.94 725.067 1315.91 794.018 1315.96 862.813 L 1315.95 935.858 C 1315.91 963.246 1319.57 991.372 1298.62 1012.27 C 1283.29 1027.55 1266.37 1029.41 1245.95 1029.5 C 1205.67 1029.88 1165.38 1029.74 1125.11 1029.08 C 1109.91 1011.54 1091.7 986.302 1077.29 967.438 L 1001.99 869.374 C 987.616 850.546 971.724 828.496 955.953 810.897 C 951.695 806.146 940.699 802.316 933.993 801.973 C 924.312 801.463 914.848 804.961 907.827 811.645 C 901.057 818.058 892.133 829.461 885.93 836.81 L 846.454 883.572 C 809.019 928.066 769.56 973.776 733.095 1018.75 C 733.064 928.149 732.19 835.857 733.199 745.359 z" fill="url(#Gradient1)" transform="translate(0,0)"></path>
<path d="M 733.199 745.359 C 732.656 737.024 733.049 723.699 733.038 715.055 L 733.038 657.455 C 733.151 639.028 735.957 621.497 749.915 608.062 C 771.193 587.581 799.65 590.922 827.01 590.892 L 895.228 590.879 C 966.081 590.885 1041.32 589.571 1111.84 591.113 C 1116.75 593.692 1249.26 593.973 1263.58 592.73 L 1263.57 593.395 C 1257.72 596.537 1250.69 600.688 1244.52 602.779 C 1238.77 604.728 1238.44 609.432 1231.37 612.498 C 1230.36 611.983 1229.12 611.349 1227.65 610.595 C 1221.93 612.174 1214.85 614.476 1209.19 615.727 C 1205.73 617.134 1202.92 621.222 1199.15 621.936 C 1189.36 623.792 1179.46 619.266 1170.16 624.423 C 1168.03 625.603 1166.95 624.449 1165 625 L 1162.07 626.028 C 1161.85 626.568 1161.63 627.108 1161.41 627.648 C 1159.35 631.536 1137.63 644.594 1134.47 645.336 C 1125.51 647.324 1116.48 649.178 1107.49 651.057 C 1104.77 651.626 1099.88 658.081 1098.02 658.498 C 1066.38 665.564 1034.11 676.201 1005.88 692.159 C 999.818 695.587 992.626 696.228 985.966 698.361 C 984.694 698.787 982.846 703.186 978.402 703.933 C 969.667 705.401 960.7 706.453 951.988 707.572 C 950.371 705.637 950.795 706.372 949.947 704.101 C 935.706 707.299 923.167 713.145 907.432 712.99 C 902.847 716.592 898.928 722.621 894.305 725.853 C 892.798 726.317 875.394 728.313 875.361 728.367 C 869.017 738.874 852.424 735.301 841.431 738.755 C 834.607 740.899 826.766 738.563 822.54 746.584 L 821.378 744.355 C 812.626 744.191 801.045 746.271 795.685 753.585 C 782.487 751.642 766.131 771.883 749.684 767.351 L 748.935 768.189 L 751.082 771.675 L 750.686 772.475 C 747.393 770.163 748.087 769.793 745.036 770.148 C 741.816 773.163 738.638 776.221 735.501 779.322 C 735.494 769.566 736.317 754.123 733.199 745.359 z" fill="rgb(79,140,255)" transform="translate(0,0)"></path>
<path d="M 1165 625 C 1166.18 626.052 1166.44 625.94 1165.68 627.389 C 1164.34 626.515 1164.59 626.487 1165 625 z" fill="rgb(79,140,255)" transform="translate(0,0)"></path>
<path d="M 1139.84 679.999 C 1185.53 673.984 1227.38 706.312 1233.1 752.037 C 1238.82 797.763 1206.23 839.407 1160.46 844.834 C 1115.12 850.213 1073.93 817.976 1068.26 772.664 C 1062.59 727.352 1094.56 685.961 1139.84 679.999 z" fill="rgb(251,252,254)" transform="translate(0,0)"></path>
<path d="M 1162.86 630.585 C 1163.02 630.661 1163.19 630.737 1163.35 630.813 C 1163.43 631.175 1163.42 630.918 1163.23 631.706 C 1163.06 631.531 1162.88 631.355 1162.71 631.18 C 1162.67 630.81 1162.64 631.013 1162.86 630.585 z" fill="rgb(79,140,255)" transform="translate(0,0)"></path>
<path d="M 1019.23 1197.09 C 1020.44 1196.99 1021.66 1196.93 1022.89 1196.9 C 1047.81 1196.43 1065.29 1214.74 1065.07 1239.06 C 1064.93 1254.52 1065.17 1270.25 1065.19 1285.73 L 1065.06 1405.66 C 1078.88 1390.93 1107.72 1356.82 1125.22 1352.04 C 1135.7 1349.26 1146.86 1350.84 1156.16 1356.42 C 1164.88 1361.53 1171.17 1369.93 1173.61 1379.73 C 1180.73 1407.58 1159.08 1423.71 1141.73 1441.45 L 1100.71 1483.27 C 1090.29 1493.88 1079.76 1504.59 1069.32 1515.15 C 1055.46 1529.18 1049.67 1537.26 1029.43 1541.5 C 1016.8 1542.77 1003.82 1538.97 994.689 1529.97 C 959.13 1494.9 924.464 1458.89 889.226 1423.5 C 886.462 1420.72 881.371 1415.06 879.456 1411.67 C 864.322 1384.55 880.47 1350.18 913.332 1350.79 C 935.497 1351.19 947.208 1368.12 961.493 1382.33 C 969.066 1389.86 976.472 1397.81 983.909 1405.52 L 983.817 1294.65 C 983.772 1279.09 983.679 1263.48 983.716 1247.95 C 983.747 1235.55 983.453 1225.13 990.891 1214.53 C 998.459 1203.73 1006.9 1199.72 1019.23 1197.09 z" fill="rgb(251,252,254)" transform="translate(0,0)"></path>
<metadata><recraft-signature>{"signed_by": "recraft", "signature_b64": "i7+vxreTcill30x4Kswt0V2GDAD2Y0Ui5S8k1TathFzr2NOjZFUjrzWXlYcbbAfXzMtOKH4o1Gt+JnzGZ8lvBg==", "signing_algo": "Ed25519", "generation_timestamp": 1781946249, "identifier": "fb07c553-f89b-410e-a553-24962d58f77c"}</recraft-signature></metadata></svg>